<svg xmlns="http://www.w3.org/2000/svg" xmlns:xlink="http://www.w3.org/1999/xlink" width="48" zoomAndPan="magnify" viewBox="0 0 36 36.000001" height="48" preserveAspectRatio="xMidYMid meet" version="1.0"><defs><g/><clipPath id="e8511b4166"><path d="M 0.488281 0 L 35.511719 0 L 35.511719 35.027344 L 0.488281 35.027344 Z M 0.488281 0 " clip-rule="nonzero"/></clipPath><clipPath id="fe8dc9f141"><path d="M 18 0 C 8.328125 0 0.488281 7.839844 0.488281 17.511719 C 0.488281 27.1875 8.328125 35.027344 18 35.027344 C 27.671875 35.027344 35.511719 27.1875 35.511719 17.511719 C 35.511719 7.839844 27.671875 0 18 0 Z M 18 0 " clip-rule="nonzero"/></clipPath><clipPath id="cf1efe2319"><path d="M 0.488281 0 L 35.511719 0 L 35.511719 35.027344 L 0.488281 35.027344 Z M 0.488281 0 " clip-rule="nonzero"/></clipPath><clipPath id="23507e4e3f"><path d="M 18 0 C 8.328125 0 0.488281 7.839844 0.488281 17.511719 C 0.488281 27.1875 8.328125 35.027344 18 35.027344 C 27.671875 35.027344 35.511719 27.1875 35.511719 17.511719 C 35.511719 7.839844 27.671875 0 18 0 Z M 18 0 " clip-rule="nonzero"/></clipPath><clipPath id="583a6e6642"><rect x="0" width="36" y="0" height="36"/></clipPath></defs><g clip-path="url(#e8511b4166)"><g clip-path="url(#fe8dc9f141)"><g transform="matrix(1, 0, 0, 1, 0.000000000000000056, 0.000000000000010582)"><g clip-path="url(#583a6e6642)"><g clip-path="url(#cf1efe2319)"><g clip-path="url(#23507e4e3f)"><path fill="#4a90d9" d="M 0.488281 0 L 35.511719 0 L 35.511719 35.027344 L 0.488281 35.027344 Z M 0.488281 0 " fill-opacity="1" fill-rule="nonzero"/></g></g></g></g></g></g><g fill="#ffffff" fill-opacity="1"><g transform="translate(9.756786, 26.270272)"><g><path d="M 15.6875 -3.234375 C 15.945312 -2.609375 16.078125 -2.15625 16.078125 -1.875 C 16.078125 -1.21875 15.539062 -0.660156 14.46875 -0.203125 C 13.90625 0.0351562 13.453125 0.15625 13.109375 0.15625 C 12.773438 0.15625 12.5 0.0703125 12.28125 -0.09375 C 12.0625 -0.257812 11.898438 -0.425781 11.796875 -0.59375 C 11.628906 -0.925781 10.953125 -2.503906 9.765625 -5.328125 L 8.953125 -5.28125 L 5.671875 -5.28125 L 5.671875 -2.328125 C 5.671875 -1.921875 5.65625 -1.617188 5.625 -1.421875 C 5.601562 -1.222656 5.519531 -0.992188 5.375 -0.734375 C 5.132812 -0.265625 4.457031 -0.03125 3.34375 -0.03125 C 2.125 -0.03125 1.410156 -0.347656 1.203125 -0.984375 C 1.097656 -1.285156 1.046875 -1.738281 1.046875 -2.34375 L 1.046875 -16.84375 C 1.046875 -17.238281 1.054688 -17.535156 1.078125 -17.734375 C 1.109375 -17.941406 1.191406 -18.175781 1.328125 -18.4375 C 1.578125 -18.90625 2.257812 -19.140625 3.375 -19.140625 L 9 -19.140625 C 10.539062 -19.140625 12.03125 -18.582031 13.46875 -17.46875 C 14.164062 -16.925781 14.738281 -16.191406 15.1875 -15.265625 C 15.644531 -14.347656 15.875 -13.320312 15.875 -12.1875 C 15.875 -10.226562 15.222656 -8.613281 13.921875 -7.34375 C 14.296875 -6.414062 14.882812 -5.046875 15.6875 -3.234375 Z M 5.671875 -9.890625 L 9 -9.890625 C 9.507812 -9.890625 10.015625 -10.082031 10.515625 -10.46875 C 11.023438 -10.851562 11.28125 -11.425781 11.28125 -12.1875 C 11.28125 -12.957031 11.023438 -13.535156 10.515625 -13.921875 C 10.015625 -14.316406 9.492188 -14.515625 8.953125 -14.515625 L 5.671875 -14.515625 Z M 5.671875 -9.890625 "/></g></g></g></svg>